<svg width="720" height="1071" viewBox="0 0 720 1071" fill="none" xmlns="http://www.w3.org/2000/svg">
<rect width="720" height="1071" fill="#2D2D2D"/>
<path d="M204.698 139.078C204.698 141.736 204.165 144.232 203.098 146.568C202.049 148.904 200.542 150.936 198.579 152.662C196.632 154.389 194.347 155.692 191.723 156.572L189.209 152.789C191.562 152.078 193.602 151.029 195.329 149.641C197.072 148.236 198.409 146.628 199.34 144.816C200.288 142.988 200.762 141.076 200.762 139.078V135.727H204.698V139.078ZM205.637 139.078C205.637 140.957 206.103 142.76 207.034 144.486C207.982 146.213 209.319 147.736 211.045 149.057C212.772 150.36 214.786 151.35 217.088 152.027L214.651 155.811C212.027 154.998 209.734 153.771 207.77 152.129C205.823 150.487 204.317 148.54 203.25 146.289C202.201 144.038 201.676 141.634 201.676 139.078V135.727H205.637V139.078ZM215.692 138.57H190.555V134.686H215.692V138.57ZM226.534 156.445H221.735V131.791H226.534V156.445ZM201.524 163.682H221.76V158.578H226.534V176.732H196.75V158.578H201.524V163.682ZM221.76 172.822V167.465H201.524V172.822H221.76ZM274.91 157.461H270.111V131.842H274.91V157.461ZM281.537 146.543H273.437V142.633H281.537V146.543ZM276.027 163.58H245.457V159.721H276.027V163.58ZM276.586 176.605H245.076V172.695H276.586V176.605ZM256.324 174.65H251.627V160.686H256.324V174.65ZM269.908 174.65H265.236V160.686H269.908V174.65ZM251.957 134.33C254.259 134.33 256.324 134.787 258.152 135.701C259.997 136.615 261.444 137.893 262.494 139.535C263.56 141.177 264.094 143.048 264.094 145.146C264.094 147.195 263.56 149.04 262.494 150.682C261.444 152.307 259.997 153.568 258.152 154.465C256.324 155.362 254.259 155.811 251.957 155.811C249.638 155.811 247.564 155.354 245.736 154.439C243.908 153.525 242.469 152.264 241.42 150.656C240.37 149.031 239.845 147.195 239.845 145.146C239.845 143.048 240.37 141.177 241.42 139.535C242.469 137.893 243.908 136.615 245.736 135.701C247.564 134.787 249.638 134.33 251.957 134.33ZM251.957 138.393C250.552 138.393 249.282 138.672 248.148 139.23C247.031 139.772 246.151 140.559 245.508 141.592C244.881 142.607 244.568 143.792 244.568 145.146C244.568 146.45 244.881 147.609 245.508 148.625C246.151 149.624 247.031 150.402 248.148 150.961C249.282 151.52 250.552 151.807 251.957 151.824C253.362 151.807 254.631 151.52 255.765 150.961C256.9 150.402 257.78 149.624 258.406 148.625C259.049 147.609 259.371 146.45 259.371 145.146C259.371 143.792 259.049 142.607 258.406 141.592C257.78 140.559 256.9 139.772 255.765 139.23C254.631 138.672 253.362 138.393 251.957 138.393ZM291.599 136.234H297.185V153.779H297.642L313.003 136.234H320.062L305.208 152.789L320.112 173H313.333L301.501 156.598L297.185 161.6V173H291.599V136.234ZM319.113 136.234H347.627V141.033H336.201V173H330.59V141.033H319.113V136.234ZM395.698 177.291H391.128V131.791H395.698V177.291ZM392.296 153.805H383.79V149.869H392.296V153.805ZM385.186 175.006H380.769V132.73H385.186V175.006ZM361.218 162.285C364.789 162.285 367.794 162.209 370.231 162.057C372.669 161.887 375.149 161.557 377.671 161.066L378.052 165.053C375.479 165.561 372.94 165.908 370.435 166.094C367.946 166.263 364.874 166.356 361.218 166.373H358.196V162.285H361.218ZM375.233 141.211H362.995V164.215H358.196V137.275H375.233V141.211ZM435.705 177.418H430.906V131.791H435.705V177.418ZM404.423 162.463C408.638 162.48 412.498 162.37 416.002 162.133C419.522 161.896 423.153 161.481 426.894 160.889L427.377 164.85C423.585 165.476 419.912 165.908 416.357 166.145C412.802 166.365 408.825 166.475 404.423 166.475H400.539V162.463H404.423ZM421.791 152.535H405.464V163.986H400.539V148.676H416.916V139.84H400.463V135.904H421.791V152.535ZM473.655 146.898H463.828V142.912H473.655V146.898ZM477.184 158.35H472.36V131.791H477.184V158.35ZM477.184 176.732H447.172V160.457H477.184V176.732ZM451.971 172.822H472.461V164.291H451.971V172.822ZM454.612 139.561C454.612 142.37 454.087 145.003 453.037 147.457C452.005 149.911 450.524 152.061 448.594 153.906C446.664 155.751 444.405 157.139 441.815 158.07L439.301 154.262C441.586 153.449 443.584 152.29 445.293 150.783C447.02 149.277 448.34 147.55 449.254 145.604C450.185 143.657 450.651 141.643 450.651 139.561V136.082H454.612V139.561ZM455.526 139.586C455.526 141.499 455.966 143.361 456.846 145.172C457.726 146.966 458.996 148.574 460.655 149.996C462.313 151.418 464.26 152.518 466.494 153.297L464.031 157.105C461.476 156.208 459.267 154.88 457.405 153.119C455.543 151.359 454.112 149.311 453.114 146.975C452.115 144.639 451.615 142.176 451.615 139.586V136.082H455.526V139.586ZM465.326 138.469H440.748V134.559H465.326V138.469ZM503.048 140.576H482.608V136.691H503.048V140.576ZM494.186 165.129H489.438V149.691H494.186V165.129ZM505.891 139.484C505.875 141.634 505.849 143.437 505.815 144.893C505.781 146.331 505.671 148.143 505.485 150.326C505.299 152.493 505.003 154.829 504.597 157.334L499.798 156.928C500.356 153.424 500.703 150.352 500.839 147.711C500.991 145.07 501.067 142.328 501.067 139.484V136.691H505.891V139.484ZM515.972 177.291H511.147V131.791H515.972V177.291ZM522.929 154.693H514.626V150.58H522.929V154.693ZM480.12 163.605C485.723 163.555 490.826 163.445 495.431 163.275C500.052 163.089 504.419 162.751 508.532 162.26L508.786 165.865C504.52 166.525 500.018 166.974 495.278 167.211C490.539 167.448 485.664 167.549 480.653 167.516L480.12 163.605ZM391.593 263.46H382.74V201.014H391.593V263.46ZM357.789 205.423C360.911 205.423 363.714 206.334 366.197 208.157C368.704 209.98 370.652 212.566 372.042 215.916C373.455 219.266 374.161 223.162 374.161 227.605C374.161 232.072 373.455 235.979 372.042 239.329C370.652 242.679 368.704 245.265 366.197 247.088C363.714 248.888 360.911 249.788 357.789 249.788C354.622 249.788 351.785 248.888 349.279 247.088C346.795 245.265 344.847 242.679 343.434 239.329C342.021 235.979 341.315 232.072 341.315 227.605C341.315 223.162 342.021 219.266 343.434 215.916C344.847 212.566 346.795 209.98 349.279 208.157C351.785 206.334 354.622 205.423 357.789 205.423ZM357.789 213.318C356.194 213.296 354.781 213.842 353.551 214.959C352.343 216.053 351.409 217.682 350.748 219.847C350.11 221.989 349.791 224.575 349.791 227.605C349.791 230.636 350.11 233.222 350.748 235.364C351.409 237.506 352.343 239.135 353.551 240.252C354.781 241.346 356.194 241.893 357.789 241.893C359.362 241.893 360.752 241.346 361.959 240.252C363.167 239.135 364.101 237.506 364.762 235.364C365.423 233.222 365.753 230.636 365.753 227.605C365.753 224.575 365.423 221.989 364.762 219.847C364.101 217.682 363.167 216.053 361.959 214.959C360.774 213.842 359.384 213.296 357.789 213.318ZM455.484 263.46H446.734V201.014H455.484V263.46ZM464.713 231.297H453.57V224.153H464.713V231.297ZM414.127 241.141C419.778 241.163 424.78 241.027 429.132 240.73C433.484 240.434 437.859 239.91 442.257 239.158L443.214 246.473C438.748 247.225 434.304 247.726 429.884 247.977C425.463 248.227 420.211 248.341 414.127 248.318H408.863V241.141H414.127ZM438.053 213.899H417.579V244.695H408.863V206.824H438.053V213.899ZM518.841 241.688H461.966V234.681H518.841V241.688ZM513.304 262.229H469.11V255.188H513.304V262.229ZM477.86 258.196H469.11V245.174H477.86V258.196ZM511.971 219.71H477.723V226.238H469.041V213.455H503.221V209.251H468.939V202.483H511.971V219.71ZM513.133 230.716H469.041V224.153H513.133V230.716ZM569.688 263.46H560.836V201.014H569.688V263.46ZM535.885 205.423C539.006 205.423 541.809 206.334 544.293 208.157C546.799 209.98 548.748 212.566 550.138 215.916C551.55 219.266 552.257 223.162 552.257 227.605C552.257 232.072 551.55 235.979 550.138 239.329C548.748 242.679 546.799 245.265 544.293 247.088C541.809 248.888 539.006 249.788 535.885 249.788C532.717 249.788 529.88 248.888 527.374 247.088C524.89 245.265 522.942 242.679 521.529 239.329C520.116 235.979 519.41 232.072 519.41 227.605C519.41 223.162 520.116 219.266 521.529 215.916C522.942 212.566 524.89 209.98 527.374 208.157C529.88 206.334 532.717 205.423 535.885 205.423ZM535.885 213.318C534.29 213.296 532.877 213.842 531.646 214.959C530.439 216.053 529.504 217.682 528.844 219.847C528.206 221.989 527.887 224.575 527.887 227.605C527.887 230.636 528.206 233.222 528.844 235.364C529.504 237.506 530.439 239.135 531.646 240.252C532.877 241.346 534.29 241.893 535.885 241.893C537.457 241.893 538.847 241.346 540.055 240.252C541.262 239.135 542.196 237.506 542.857 235.364C543.518 233.222 543.848 230.636 543.848 227.605C543.848 224.575 543.518 221.989 542.857 219.847C542.196 217.682 541.262 216.053 540.055 214.959C538.87 213.842 537.48 213.296 535.885 213.318ZM595.106 263.289H586.151V240.286H595.106V263.289ZM616.707 263.289H607.855V240.286H616.707V263.289ZM630.037 242.713H573.162V235.672H630.037V242.713ZM601.429 203.133C605.872 203.133 609.803 203.714 613.221 204.876C616.662 206.015 619.328 207.645 621.219 209.764C623.133 211.883 624.09 214.355 624.09 217.181C624.09 219.915 623.133 222.319 621.219 224.393C619.328 226.466 616.662 228.073 613.221 229.212C609.803 230.328 605.872 230.898 601.429 230.921C596.986 230.898 593.055 230.328 589.637 229.212C586.242 228.073 583.587 226.466 581.673 224.393C579.782 222.319 578.836 219.915 578.836 217.181C578.836 214.355 579.782 211.883 581.673 209.764C583.564 207.645 586.219 206.015 589.637 204.876C593.078 203.714 597.008 203.133 601.429 203.133ZM601.429 210.105C598.649 210.105 596.234 210.379 594.183 210.926C592.132 211.473 590.56 212.282 589.466 213.353C588.395 214.401 587.86 215.677 587.86 217.181C587.86 218.616 588.395 219.847 589.466 220.872C590.56 221.897 592.132 222.684 594.183 223.23C596.234 223.755 598.649 224.017 601.429 224.017C604.232 224.017 606.658 223.755 608.709 223.23C610.783 222.684 612.366 221.897 613.46 220.872C614.554 219.847 615.101 218.616 615.101 217.181C615.101 215.677 614.554 214.401 613.46 213.353C612.366 212.282 610.783 211.473 608.709 210.926C606.658 210.379 604.232 210.105 601.429 210.105Z" fill="white"/>
<path d="M96.6961 207.508H103.942L100.558 226.956H90.783L96.6961 207.508ZM133.632 209.148C133.632 212.498 132.686 215.574 130.795 218.377C128.904 221.18 126.135 223.527 122.489 225.418C118.844 227.286 114.434 228.528 109.262 229.144L106.117 222.273C110.424 221.795 114.058 220.872 117.021 219.505C120.006 218.138 122.239 216.554 123.72 214.754C125.201 212.931 125.942 211.062 125.942 209.148V207.61H133.632V209.148ZM137.87 209.148C137.87 211.062 138.611 212.931 140.092 214.754C141.573 216.554 143.818 218.138 146.825 219.505C149.833 220.872 153.479 221.795 157.763 222.273L154.516 229.144C149.412 228.528 145.014 227.286 141.322 225.418C137.631 223.527 134.828 221.18 132.914 218.377C131 215.574 130.043 212.498 130.043 209.148V207.61H137.87V209.148ZM155.199 210.618H108.715V203.748H155.199V210.618ZM160.395 239.056H103.52V232.083H160.395V239.056ZM137.016 249.754H128.403V236.458H137.016V249.754ZM154.14 262.229H110.151V255.188H154.14V262.229ZM118.901 257.649H110.151V244.217H118.901V257.649ZM195.382 221.111H185.641V214.31H195.382V221.111ZM165.92 225.999C170.727 226.022 174.704 225.953 177.848 225.794C180.993 225.612 184.194 225.27 187.453 224.769L188.307 231.399C184.798 231.946 181.392 232.334 178.088 232.562C174.783 232.767 170.727 232.881 165.92 232.903H161.647V225.999H165.92ZM185.334 211.268H169.816V230.647H161.647V204.568H185.334V211.268ZM183.009 221.727H167.492V215.232H183.009V221.727ZM212.609 234.1H204.303V201.15H212.609V234.1ZM200.236 233.655H191.964V202.107H200.236V233.655ZM212.609 252.557H178.771V260.418H170.089V246.302H203.962V243.021H170.055V236.321H212.609V252.557ZM214.694 262.845H170.089V256.146H214.694V262.845ZM220.902 241.517C225.482 241.517 229.424 241.414 232.729 241.209C236.055 241.004 239.519 240.582 243.119 239.944L243.871 247.02C240.18 247.703 236.648 248.147 233.275 248.353C229.903 248.558 225.779 248.672 220.902 248.694H216.493V241.517H220.902ZM238.505 230.887H224.901V244.388H216.493V223.982H230.131V214.207H216.425V207.269H238.505V230.887ZM268.515 263.289H260.312V201.014H268.515V263.289ZM251.049 229.349H241.137V222.308H251.049V229.349ZM255.663 260.281H247.494V202.21H255.663V260.281ZM316.559 209.456H276.842V202.586H316.559V209.456ZM326.984 236.834H270.485V229.93H326.984V236.834ZM300.358 234.612H291.574V223.23H300.358V234.612ZM320.695 207.747C320.672 211.507 320.581 214.799 320.421 217.625C320.285 220.451 319.886 223.618 319.225 227.127L310.475 226.717C311.113 223.23 311.512 220.143 311.671 217.454C311.831 214.765 311.922 211.53 311.945 207.747V202.586H320.695V207.747ZM276.193 221.282L275.133 214.241L314.542 213.387V219.573L276.193 221.282ZM320.182 262.605H276.945V241.175H320.182V262.605ZM285.524 255.599H311.569V247.908H285.524V255.599ZM333.978 226.99H326.732L330.116 207.542H339.891L333.978 226.99Z" fill="#3C83EC"/>
<rect x="50" y="365" width="620" height="120" rx="60" fill="white"/>
<rect x="50" y="521" width="620" height="120" rx="60" fill="white"/>
<rect x="50" y="676" width="620" height="120" rx="60" fill="white"/>
<rect x="50" y="836" width="620" height="120" rx="60" fill="white"/>
<path d="M202.474 407.096C204.51 407.096 206.333 407.492 207.945 408.283C209.556 409.059 210.816 410.15 211.724 411.557C212.632 412.963 213.086 414.567 213.086 416.369C213.086 418.185 212.632 419.811 211.724 421.247C210.816 422.667 209.556 423.781 207.945 424.586C206.333 425.377 204.51 425.773 202.474 425.773C200.452 425.773 198.636 425.377 197.024 424.586C195.413 423.781 194.146 422.667 193.223 421.247C192.3 419.811 191.839 418.185 191.839 416.369C191.839 414.567 192.3 412.963 193.223 411.557C194.146 410.15 195.413 409.059 197.024 408.283C198.636 407.492 200.452 407.096 202.474 407.096ZM202.474 411.139C201.36 411.125 200.357 411.337 199.463 411.776C198.57 412.216 197.867 412.831 197.354 413.622C196.856 414.413 196.607 415.329 196.607 416.369C196.607 417.423 196.856 418.346 197.354 419.137C197.867 419.928 198.57 420.543 199.463 420.983C200.357 421.422 201.36 421.657 202.474 421.686C203.616 421.657 204.627 421.43 205.506 421.005C206.399 420.565 207.095 419.95 207.593 419.159C208.106 418.354 208.362 417.423 208.362 416.369C208.362 415.343 208.106 414.428 207.593 413.622C207.095 412.816 206.399 412.201 205.506 411.776C204.627 411.337 203.616 411.125 202.474 411.139ZM222.667 426.718H217.789V405.185H222.667V426.718ZM228.226 417.819H221.282V413.798H228.226V417.819ZM201.771 432.606H217.789V428.454H222.667V444.406H196.915V428.454H201.771V432.606ZM217.789 440.473V436.386H201.771V440.473H217.789ZM259.331 427.135H231.47V423.246H259.331V427.135ZM263.396 440.209H227.097V436.188H263.396V440.209ZM247.554 437.572H242.742V425.004H247.554V437.572ZM259.001 412.062H236.37V425.026H231.47V408.151H259.001V412.062ZM276.44 412.04C276.44 414.516 276 416.852 275.121 419.049C274.257 421.247 272.983 423.166 271.298 424.806C269.628 426.432 267.614 427.641 265.256 428.432L262.729 424.586C264.78 423.883 266.537 422.887 268.002 421.598C269.467 420.294 270.573 418.815 271.32 417.16C272.067 415.49 272.441 413.783 272.441 412.04V409.162H276.44V412.04ZM277.407 411.996C277.407 413.637 277.758 415.233 278.461 416.786C279.179 418.324 280.241 419.708 281.647 420.939C283.068 422.155 284.767 423.1 286.745 423.773L284.306 427.575C281.992 426.813 280.021 425.656 278.395 424.103C276.769 422.536 275.532 420.705 274.682 418.61C273.847 416.515 273.429 414.311 273.429 411.996V409.162H277.407V411.996ZM292.612 419.049H284.482V415.028H292.612V419.049ZM285.646 411.513H264.157V407.58H285.646V411.513ZM296.083 444.867H291.205V434.694H269.013V430.739H296.083V444.867ZM296.083 428.871H291.205V405.185H296.083V428.871ZM335.618 411.491H310.547V407.536H335.618V411.491ZM342.32 428.651H306.153V424.696H342.32V428.651ZM319.644 444.889H314.788V427.399H319.644V444.889ZM337.53 410.304C337.53 412.912 337.457 415.373 337.31 417.687C337.164 420.001 336.812 422.719 336.255 425.839L331.334 425.465C331.773 423.356 332.095 421.393 332.3 419.577C332.52 417.746 332.652 416.178 332.696 414.875C332.74 413.556 332.769 412.033 332.784 410.304V407.536H337.53V410.304ZM333.421 444.889H328.543V427.399H333.421V444.889ZM378.193 440.099H341.895V436.078H378.193V440.099ZM362.351 437.067H357.539V426.652H362.351V437.067ZM373.997 427.421H345.872V408.283H373.997V427.421ZM350.684 423.576H369.207V412.172H350.684V423.576ZM390.512 407.909C392.592 407.909 394.46 408.319 396.115 409.14C397.77 409.96 399.067 411.103 400.004 412.567C400.942 414.018 401.411 415.673 401.411 417.533C401.411 419.394 400.942 421.056 400.004 422.521C399.067 423.971 397.77 425.106 396.115 425.927C394.475 426.747 392.607 427.157 390.512 427.157C388.461 427.157 386.601 426.747 384.931 425.927C383.261 425.106 381.95 423.971 380.998 422.521C380.06 421.056 379.592 419.394 379.592 417.533C379.592 415.673 380.06 414.018 380.998 412.567C381.95 411.103 383.261 409.96 384.931 409.14C386.601 408.319 388.461 407.909 390.512 407.909ZM390.512 412.15C389.355 412.15 388.315 412.37 387.392 412.809C386.469 413.249 385.744 413.878 385.217 414.699C384.689 415.504 384.426 416.449 384.426 417.533C384.426 418.617 384.689 419.562 385.217 420.368C385.744 421.173 386.469 421.803 387.392 422.257C388.315 422.697 389.355 422.917 390.512 422.917C391.699 422.917 392.753 422.697 393.676 422.257C394.599 421.803 395.317 421.173 395.829 420.368C396.357 419.562 396.621 418.617 396.621 417.533C396.621 416.449 396.357 415.504 395.829 414.699C395.317 413.878 394.599 413.249 393.676 412.809C392.753 412.37 391.699 412.15 390.512 412.15ZM410.683 444.977H405.849V405.185H410.683V444.977ZM377.79 432.65C381.042 432.636 383.986 432.599 386.623 432.541C389.26 432.482 392.065 432.365 395.038 432.189C398.012 431.999 400.817 431.713 403.454 431.332L403.828 434.892C401.088 435.39 398.246 435.771 395.302 436.034C392.358 436.298 389.589 436.466 386.996 436.54C384.418 436.613 381.555 436.649 378.405 436.649L377.79 432.65ZM443.319 412.589H421.917V408.678H443.319V412.589ZM420.819 424.96C425.345 424.931 429.615 424.835 433.629 424.674C437.657 424.513 441.4 424.228 444.857 423.817L445.23 427.421C441.671 428.007 437.899 428.402 433.914 428.607C429.93 428.798 425.74 428.893 421.346 428.893L420.819 424.96ZM430.135 425.751H425.389V411.601H430.135V425.751ZM439.803 425.751H435.079V411.601H439.803V425.751ZM452.261 434.452H447.383V405.229H452.261V434.452ZM457.821 420.785H450.811V416.698H457.821V420.785ZM453.821 444.164H426.817V440.165H453.821V444.164ZM431.673 441.286H426.817V431.684H431.673V441.286ZM490.947 444.867H486.245V405.185H490.947V444.867ZM487.849 424.542H480.796V420.565H487.849V424.542ZM482.026 443H477.412V405.866H482.026V443ZM473.501 434.694H457.9V409.491H473.501V434.694ZM462.471 430.827H468.909V413.336H462.471V430.827ZM529.348 414.896H522.272V410.854H529.348V414.896ZM529.348 423.29H522.272V419.225H529.348V423.29ZM523.745 429.201H518.867V405.229H523.745V429.201ZM497.224 423.246C501.296 423.246 504.687 423.166 507.397 423.004C510.122 422.829 512.861 422.506 515.615 422.038L516.12 425.971C513.352 426.483 510.568 426.828 507.771 427.003C504.987 427.179 501.472 427.267 497.224 427.267H493.972V423.246H497.224ZM512.077 419.071H498.828V425.751H493.972V415.38H507.287V411.513H493.906V407.624H512.077V419.071ZM510.781 429.992C513.491 429.992 515.849 430.292 517.856 430.893C519.863 431.479 521.408 432.335 522.492 433.463C523.576 434.591 524.118 435.932 524.118 437.484C524.118 439.008 523.583 440.319 522.514 441.417C521.445 442.531 519.907 443.373 517.9 443.944C515.893 444.53 513.52 444.823 510.781 444.823C507.998 444.823 505.603 444.53 503.596 443.944C501.589 443.373 500.043 442.538 498.959 441.439C497.875 440.341 497.333 439.022 497.333 437.484C497.333 435.932 497.875 434.591 498.959 433.463C500.043 432.335 501.596 431.479 503.618 430.893C505.639 430.292 508.027 429.992 510.781 429.992ZM510.781 433.793C508.95 433.793 507.382 433.939 506.079 434.232C504.775 434.511 503.793 434.928 503.134 435.485C502.475 436.027 502.146 436.693 502.146 437.484C502.146 438.261 502.475 438.927 503.134 439.484C503.793 440.026 504.768 440.443 506.057 440.736C507.36 441.015 508.935 441.154 510.781 441.154C512.612 441.154 514.165 441.015 515.439 440.736C516.713 440.443 517.673 440.026 518.317 439.484C518.977 438.942 519.306 438.275 519.306 437.484C519.306 436.693 518.977 436.027 518.317 435.485C517.673 434.928 516.713 434.511 515.439 434.232C514.165 433.939 512.612 433.793 510.781 433.793Z" fill="black"/>
<path d="M125.689 568.743H100.135V564.81H125.689V568.743ZM132.566 595.77H96.3993V591.792H132.566V595.77ZM114.571 593.836H109.759V577.95H114.571V593.836ZM128.787 568.655C128.787 570.984 128.758 572.962 128.699 574.588C128.641 576.199 128.501 578.104 128.282 580.301C128.062 582.483 127.718 584.856 127.249 587.42L122.305 586.893C122.788 584.49 123.147 582.227 123.382 580.103C123.616 577.964 123.755 576.067 123.799 574.412C123.843 572.757 123.865 570.838 123.865 568.655V564.81H128.787V568.655ZM163.232 600.845H158.354V561.185H163.232V600.845ZM169.121 580.762H161.98V576.719H169.121V580.762ZM152.751 565.337C152.751 569.38 152.143 573.145 150.928 576.631C149.726 580.103 147.785 583.296 145.105 586.211C142.424 589.112 138.952 591.624 134.69 593.748L131.943 589.969C135.532 588.152 138.506 586.08 140.864 583.75C143.237 581.421 145.01 578.807 146.181 575.906C147.353 572.991 147.939 569.754 147.939 566.194V565.337H152.751ZM150.422 569.358H134.009V565.337H150.422V569.358ZM181.088 592.869H176.276V581.487H181.088V592.869ZM195.788 592.869H190.866V581.487H195.788V592.869ZM204.181 596.099H167.883V592.078H204.181V596.099ZM185.966 563.316C188.808 563.316 191.342 563.755 193.569 564.634C195.81 565.499 197.568 566.729 198.842 568.326C200.116 569.922 200.754 571.753 200.754 573.819C200.754 575.899 200.116 577.73 198.842 579.312C197.582 580.894 195.832 582.117 193.591 582.981C191.364 583.846 188.822 584.285 185.966 584.3C183.11 584.285 180.561 583.846 178.32 582.981C176.093 582.117 174.342 580.894 173.068 579.312C171.808 577.73 171.178 575.899 171.178 573.819C171.178 571.753 171.808 569.922 173.068 568.326C174.342 566.729 176.1 565.499 178.342 564.634C180.583 563.755 183.124 563.316 185.966 563.316ZM185.966 567.227C183.988 567.212 182.245 567.469 180.737 567.996C179.242 568.523 178.071 569.285 177.221 570.281C176.386 571.277 175.968 572.457 175.968 573.819C175.968 575.167 176.386 576.346 177.221 577.356C178.071 578.353 179.242 579.129 180.737 579.686C182.245 580.228 183.988 580.499 185.966 580.499C187.914 580.499 189.643 580.228 191.152 579.686C192.66 579.129 193.832 578.353 194.667 577.356C195.517 576.346 195.942 575.167 195.942 573.819C195.942 572.457 195.517 571.285 194.667 570.303C193.832 569.307 192.66 568.545 191.152 568.018C189.657 567.476 187.929 567.212 185.966 567.227ZM233.617 567.051H208.085V563.118H233.617V567.051ZM239.923 581.421H203.624V577.466H239.923V581.421ZM235.463 566.216C235.463 568.501 235.389 570.567 235.243 572.413C235.111 574.244 234.774 576.331 234.232 578.675L229.31 578.499C229.72 576.873 230.013 575.35 230.189 573.929C230.365 572.508 230.475 571.255 230.519 570.171C230.563 569.073 230.585 567.754 230.585 566.216V563.118H235.463V566.216ZM235.419 600.406H207.953V586.058H235.419V600.406ZM212.765 596.473H230.563V589.881H212.765V596.473ZM273.511 600.867H268.897V561.185H273.511V600.867ZM262.195 578.982H255.142V575.049H262.195V578.982ZM265.425 598.978H260.855V561.954H265.425V598.978ZM250.638 572.061C250.638 575.079 250.293 577.964 249.605 580.718C248.931 583.458 247.928 585.926 246.595 588.123C245.262 590.32 243.606 592.027 241.629 593.243L238.619 589.639C240.479 588.497 242.032 587.002 243.277 585.157C244.522 583.296 245.438 581.246 246.023 579.004C246.609 576.763 246.902 574.449 246.902 572.061V567.557H250.638V572.061ZM251.604 572.061C251.604 574.375 251.883 576.602 252.439 578.741C253.011 580.879 253.904 582.82 255.12 584.563C256.336 586.292 257.859 587.684 259.69 588.738L256.812 592.32C254.82 591.133 253.165 589.507 251.846 587.442C250.542 585.376 249.568 583.033 248.924 580.411C248.294 577.789 247.979 575.005 247.979 572.061V567.557H251.604V572.061ZM258.042 569.402H240.003V565.447H258.042V569.402ZM286.723 606.185H282.548L284.811 593.858H290.414L286.723 606.185ZM334.827 588.189H298.528V584.322H334.827V588.189ZM318.963 600.867H314.151V586.167H318.963V600.867ZM307.713 567.623H325.489V562.767H330.389V580.147H302.901V562.767H307.713V567.623ZM325.489 576.214V571.512H307.713V576.214H325.489ZM365.405 600.845H360.527V561.185H365.405V600.845ZM371.294 580.762H364.153V576.719H371.294V580.762ZM354.924 565.337C354.924 569.38 354.316 573.145 353.101 576.631C351.899 580.103 349.958 583.296 347.278 586.211C344.597 589.112 341.125 591.624 336.863 593.748L334.116 589.969C337.705 588.152 340.679 586.08 343.037 583.75C345.41 581.421 347.183 578.807 348.354 575.906C349.526 572.991 350.112 569.754 350.112 566.194V565.337H354.924ZM352.595 569.358H336.182V565.337H352.595V569.358ZM400.927 577.972H390.161V574.039H400.927V577.972ZM383.723 570.721C383.723 573.943 383.298 577.012 382.448 579.927C381.599 582.828 380.346 585.398 378.691 587.64C377.036 589.881 375.051 591.595 372.736 592.781L369.638 588.804C371.747 587.823 373.564 586.387 375.087 584.498C376.611 582.608 377.768 580.477 378.559 578.104C379.35 575.716 379.746 573.255 379.746 570.721V564.371H383.723V570.721ZM384.711 570.721C384.711 573.24 385.092 575.65 385.854 577.95C386.63 580.25 387.758 582.293 389.238 584.08C390.732 585.867 392.504 587.222 394.555 588.145L391.611 592.056C389.296 590.914 387.326 589.273 385.7 587.134C384.089 584.981 382.866 582.505 382.031 579.708C381.196 576.91 380.778 573.914 380.778 570.721V564.371H384.711V570.721ZM403.322 600.977H398.488V561.185H403.322V600.977ZM438.822 600.977H433.878V561.185H438.822V600.977ZM412.741 574.368H422.387V564.437H427.199V591.595H407.885V564.437H412.741V574.368ZM422.387 587.596V578.191H412.741V587.596H422.387ZM461.138 566.612C461.138 569.439 460.428 572.09 459.007 574.566C457.601 577.042 455.653 579.144 453.162 580.872C450.687 582.601 447.882 583.794 444.747 584.454L442.637 580.389C445.318 579.876 447.742 578.924 449.91 577.532C452.093 576.141 453.792 574.485 455.008 572.566C456.238 570.647 456.854 568.663 456.854 566.612V563.711H461.138V566.612ZM462.017 566.612C462.017 568.663 462.633 570.655 463.863 572.588C465.108 574.507 466.822 576.17 469.005 577.576C471.202 578.968 473.648 579.905 476.343 580.389L474.168 584.454C471.063 583.794 468.272 582.608 465.797 580.894C463.321 579.18 461.373 577.093 459.952 574.632C458.546 572.156 457.842 569.483 457.842 566.612V563.711H462.017V566.612ZM477.838 595.835H441.539V591.814H477.838V595.835ZM516.164 584.52H511.286V561.185H516.164V584.52ZM521.723 574.874H514.78V570.896H521.723V574.874ZM505.2 563.909C505.2 567.337 504.467 570.45 503.002 573.248C501.552 576.045 499.443 578.448 496.674 580.455C493.92 582.447 490.581 584 486.655 585.113L484.655 581.136C487.907 580.242 490.676 579.056 492.961 577.576C495.261 576.097 497.004 574.405 498.19 572.5C499.377 570.582 499.97 568.516 499.97 566.304V563.909H505.2ZM502.915 567.864H486.479V563.909H502.915V567.864ZM503.332 584.959C506.013 584.959 508.356 585.281 510.363 585.926C512.37 586.57 513.908 587.493 514.978 588.694C516.062 589.881 516.604 591.28 516.604 592.891C516.604 594.517 516.062 595.931 514.978 597.132C513.908 598.348 512.37 599.271 510.363 599.9C508.356 600.545 506.013 600.867 503.332 600.867C500.695 600.867 498.366 600.545 496.345 599.9C494.338 599.271 492.785 598.348 491.687 597.132C490.603 595.931 490.061 594.517 490.061 592.891C490.061 591.28 490.603 589.881 491.687 588.694C492.785 587.493 494.338 586.57 496.345 585.926C498.366 585.281 500.695 584.959 503.332 584.959ZM503.332 588.804C501.604 588.775 500.102 588.921 498.828 589.244C497.553 589.566 496.579 590.042 495.905 590.672C495.231 591.287 494.895 592.027 494.895 592.891C494.895 593.755 495.231 594.495 495.905 595.11C496.579 595.726 497.553 596.202 498.828 596.539C500.102 596.875 501.604 597.044 503.332 597.044C505.09 597.044 506.599 596.875 507.858 596.539C509.133 596.202 510.107 595.726 510.781 595.11C511.469 594.495 511.813 593.755 511.813 592.891C511.813 592.027 511.469 591.287 510.781 590.672C510.107 590.042 509.133 589.566 507.858 589.244C506.599 588.921 505.09 588.775 503.332 588.804ZM533.8 592.869H528.988V581.487H533.8V592.869ZM548.5 592.869H543.578V581.487H548.5V592.869ZM556.893 596.099H520.595V592.078H556.893V596.099ZM538.678 563.316C541.52 563.316 544.054 563.755 546.281 564.634C548.522 565.499 550.28 566.729 551.554 568.326C552.829 569.922 553.466 571.753 553.466 573.819C553.466 575.899 552.829 577.73 551.554 579.312C550.294 580.894 548.544 582.117 546.303 582.981C544.076 583.846 541.535 584.285 538.678 584.3C535.822 584.285 533.273 583.846 531.032 582.981C528.805 582.117 527.055 580.894 525.78 579.312C524.52 577.73 523.891 575.899 523.891 573.819C523.891 571.753 524.52 569.922 525.78 568.326C527.055 566.729 528.812 565.499 531.054 564.634C533.295 563.755 535.836 563.316 538.678 563.316ZM538.678 567.227C536.701 567.212 534.957 567.469 533.449 567.996C531.954 568.523 530.783 569.285 529.933 570.281C529.098 571.277 528.681 572.457 528.681 573.819C528.681 575.167 529.098 576.346 529.933 577.356C530.783 578.353 531.954 579.129 533.449 579.686C534.957 580.228 536.701 580.499 538.678 580.499C540.626 580.499 542.355 580.228 543.864 579.686C545.372 579.129 546.544 578.353 547.379 577.356C548.229 576.346 548.654 575.167 548.654 573.819C548.654 572.457 548.229 571.285 547.379 570.303C546.544 569.307 545.372 568.545 543.864 568.018C542.37 567.476 540.641 567.212 538.678 567.227ZM591.66 597H586.585L571.533 575.269H571.248V597H565.535V565.184H570.676L585.684 586.937H585.969V565.184H591.66V597ZM622.788 581.092C622.788 584.432 622.158 587.339 620.898 589.815C619.653 592.276 617.924 594.166 615.712 595.484C613.501 596.788 610.996 597.439 608.198 597.439C605.4 597.439 602.895 596.788 600.683 595.484C598.486 594.166 596.757 592.269 595.498 589.793C594.238 587.317 593.608 584.417 593.608 581.092C593.608 577.723 594.238 574.808 595.498 572.347C596.757 569.886 598.486 568.003 600.683 566.7C602.895 565.396 605.4 564.744 608.198 564.744C610.996 564.744 613.501 565.396 615.712 566.7C617.924 568.003 619.653 569.886 620.898 572.347C622.158 574.808 622.788 577.723 622.788 581.092ZM617.053 581.092C617.053 578.719 616.679 576.69 615.932 575.005C615.2 573.321 614.167 572.046 612.834 571.182C611.516 570.318 609.97 569.886 608.198 569.886C606.455 569.886 604.909 570.318 603.562 571.182C602.229 572.046 601.189 573.321 600.441 575.005C599.709 576.69 599.343 578.719 599.343 581.092C599.343 583.465 599.709 585.494 600.441 587.178C601.189 588.863 602.229 590.137 603.562 591.001C604.909 591.866 606.455 592.298 608.198 592.298C609.97 592.298 611.516 591.866 612.834 591.001C614.167 590.137 615.2 588.863 615.932 587.178C616.679 585.494 617.053 583.465 617.053 581.092Z" fill="black"/>
<path d="M93.1913 720.184H98.9042V734.839H99.3217L111.736 720.184H118.767L106.419 734.466L118.877 752H111.956L102.442 738.333L98.9042 742.53V752H93.1913V720.184ZM117.793 720.184H143.171V724.996H133.349V752H127.659V724.996H117.793V720.184ZM177.177 755.867H172.475V716.185H177.177V755.867ZM169.443 754.065H164.894V716.932H169.443V754.065ZM167.048 733.213H160.126V729.236H167.048V733.213ZM166.74 742.31H159.841V738.443H166.74V742.31ZM162.038 726.402H142.834V722.491H162.038V726.402ZM152.326 728.511C153.967 728.511 155.431 728.907 156.72 729.698C158.009 730.489 159.013 731.602 159.731 733.038C160.463 734.473 160.829 736.106 160.829 737.938C160.829 739.754 160.463 741.38 159.731 742.815C159.013 744.236 158.009 745.35 156.72 746.155C155.431 746.946 153.967 747.342 152.326 747.342C150.744 747.342 149.308 746.946 148.019 746.155C146.73 745.35 145.719 744.236 144.987 742.815C144.269 741.38 143.91 739.754 143.91 737.938C143.91 736.106 144.269 734.48 144.987 733.06C145.705 731.624 146.708 730.511 147.997 729.72C149.301 728.914 150.744 728.511 152.326 728.511ZM152.326 732.664C151.506 732.649 150.78 732.854 150.151 733.279C149.521 733.704 149.03 734.319 148.678 735.125C148.342 735.916 148.173 736.854 148.173 737.938C148.173 738.992 148.349 739.915 148.7 740.706C149.052 741.497 149.535 742.112 150.151 742.552C150.78 742.977 151.506 743.189 152.326 743.189C153.161 743.189 153.901 742.977 154.545 742.552C155.204 742.112 155.71 741.497 156.061 740.706C156.413 739.915 156.589 738.992 156.589 737.938C156.589 736.854 156.413 735.916 156.061 735.125C155.71 734.319 155.204 733.704 154.545 733.279C153.901 732.854 153.161 732.649 152.326 732.664ZM154.897 724.908H150.019V717.195H154.897V724.908ZM182.794 734.664C186.061 734.649 188.719 734.576 190.77 734.444C192.821 734.312 194.879 734.063 196.944 733.697L197.428 737.652C195.216 738.047 193.048 738.318 190.924 738.465C188.815 738.597 186.105 738.663 182.794 738.663H180.157V734.664H182.794ZM195.758 722.886H184.838V736.839H180.157V718.909H195.758V722.886ZM195.34 730.467H183.409V726.731H195.34V730.467ZM212.611 740.398H207.953V716.229H212.611V740.398ZM209.315 730.071H202.504V726.16H209.315V730.071ZM203.8 740.135H199.274V716.954H203.8V740.135ZM212.611 755.867H207.777V746.111H185.409V742.178H212.611V755.867ZM232.7 728.643H237.556V750.11H232.7V728.643ZM224.394 736.949H245.884V741.783H224.394V736.949ZM274.476 721.282C274.476 723.421 273.839 725.384 272.565 727.171C271.305 728.943 269.503 730.423 267.159 731.609C264.83 732.796 262.106 733.587 258.986 733.982L257.206 730.115C259.842 729.808 262.135 729.207 264.083 728.313C266.046 727.42 267.548 726.358 268.588 725.127C269.628 723.897 270.148 722.615 270.148 721.282V720.228H274.476V721.282ZM276.761 721.282C276.761 722.615 277.289 723.897 278.343 725.127C279.398 726.358 280.914 727.42 282.892 728.313C284.869 729.207 287.162 729.808 289.769 730.115L287.946 733.982C284.84 733.587 282.108 732.796 279.75 731.609C277.406 730.423 275.59 728.943 274.3 727.171C273.026 725.384 272.389 723.421 272.389 721.282V720.228H276.761V721.282ZM288.319 721.875H258.678V718.008H288.319V721.875ZM291.659 740.135H255.36V736.18H291.659V740.135ZM276.322 747.386H271.488V738.663H276.322V747.386ZM287.638 755.164H259.733V751.165H287.638V755.164ZM264.633 752.593H259.733V743.716H264.633V752.593ZM314.546 728.665H308.13V724.82H314.546V728.665ZM295.452 732.466C298.558 732.466 301.129 732.415 303.165 732.312C305.201 732.195 307.288 731.954 309.427 731.587L309.91 735.345C307.625 735.711 305.406 735.967 303.253 736.114C301.114 736.246 298.514 736.319 295.452 736.333H292.794V732.466H295.452ZM307.933 722.293H297.408V735.015H292.794V718.492H307.933V722.293ZM306.395 729.083H296.046V725.391H306.395V729.083ZM325.093 737.388H320.435V716.229H325.093V737.388ZM317.271 737.103H312.591V716.888H317.271V737.103ZM325.093 748.902H303.121V754.197H298.265V745.364H320.259V742.75H298.199V738.948H325.093V748.902ZM326.522 755.56H298.265V751.758H326.522V755.56ZM330.798 742.376C333.699 742.376 336.233 742.31 338.401 742.178C340.583 742.032 342.861 741.753 345.234 741.343L345.652 745.32C343.22 745.76 340.913 746.053 338.73 746.199C336.562 746.331 333.918 746.404 330.798 746.419H328.052V742.376H330.798ZM342.136 734.905H332.776V744.024H328.052V731.016H337.434V724.227H327.986V720.293H342.136V734.905ZM361.033 755.867H356.418V716.185H361.033V755.867ZM350.31 733.96H343.894V730.005H350.31V733.96ZM352.859 753.912H348.289V717.02H352.859V753.912ZM392.292 721.172H366.826V717.327H392.292V721.172ZM398.752 738.772H362.673V734.861H398.752V738.772ZM381.459 737.498H376.559V730.225H381.459V737.498ZM394.577 720.513C394.562 722.93 394.504 725.032 394.401 726.819C394.313 728.592 394.057 730.606 393.632 732.862L388.71 732.62C389.15 730.364 389.421 728.372 389.523 726.644C389.626 724.9 389.684 722.857 389.699 720.513V717.327H394.577V720.513ZM366.364 728.775L365.749 724.776L391.127 724.161V727.632L366.364 728.775ZM394.313 755.406H366.892V741.958H394.313V755.406ZM371.725 751.473H389.479V745.76H371.725V751.473ZM437.254 744.925H432.376V716.207H437.254V744.925ZM442.857 731.412H435.782V727.369H442.857V731.412ZM410.821 734.224C415.362 734.224 418.885 734.144 421.39 733.982C423.895 733.821 426.348 733.484 428.751 732.972L429.3 736.927C426.78 737.41 424.188 737.747 421.522 737.938C418.87 738.113 415.303 738.201 410.821 738.201H407.569V734.224H410.821ZM425.389 723.414H412.447V736.399H407.569V719.458H425.389V723.414ZM438.814 755.164H411.81V751.165H438.814V755.164ZM416.666 753.143H411.81V741.893H416.666V753.143ZM477.852 739.52H441.685V735.608H477.852V739.52ZM462.185 736.993H457.307V729.039H462.185V736.993ZM473.501 756.065H468.689V746.507H445.684V742.64H473.501V756.065ZM473.897 731.653H446.145V727.72H473.897V731.653ZM473.501 721.7H451.001V729.852H446.145V717.789H473.501V721.7ZM519.254 755.867H514.552V716.185H519.254V755.867ZM511.52 754.065H506.972V716.932H511.52V754.065ZM509.125 733.213H502.204V729.236H509.125V733.213ZM508.817 742.31H501.918V738.443H508.817V742.31ZM504.115 726.402H484.911V722.491H504.115V726.402ZM494.403 728.511C496.044 728.511 497.509 728.907 498.798 729.698C500.087 730.489 501.09 731.602 501.808 733.038C502.54 734.473 502.907 736.106 502.907 737.938C502.907 739.754 502.54 741.38 501.808 742.815C501.09 744.236 500.087 745.35 498.798 746.155C497.509 746.946 496.044 747.342 494.403 747.342C492.821 747.342 491.386 746.946 490.097 746.155C488.808 745.35 487.797 744.236 487.064 742.815C486.347 741.38 485.988 739.754 485.988 737.938C485.988 736.106 486.347 734.48 487.064 733.06C487.782 731.624 488.786 730.511 490.075 729.72C491.378 728.914 492.821 728.511 494.403 728.511ZM494.403 732.664C493.583 732.649 492.858 732.854 492.228 733.279C491.598 733.704 491.107 734.319 490.756 735.125C490.419 735.916 490.25 736.854 490.25 737.938C490.25 738.992 490.426 739.915 490.778 740.706C491.129 741.497 491.613 742.112 492.228 742.552C492.858 742.977 493.583 743.189 494.403 743.189C495.238 743.189 495.978 742.977 496.622 742.552C497.282 742.112 497.787 741.497 498.139 740.706C498.49 739.915 498.666 738.992 498.666 737.938C498.666 736.854 498.49 735.916 498.139 735.125C497.787 734.319 497.282 733.704 496.622 733.279C495.978 732.854 495.238 732.649 494.403 732.664ZM496.974 724.908H492.096V717.195H496.974V724.908ZM524.871 734.664C528.138 734.649 530.797 734.576 532.847 734.444C534.898 734.312 536.956 734.063 539.022 733.697L539.505 737.652C537.293 738.047 535.125 738.318 533.001 738.465C530.892 738.597 528.182 738.663 524.871 738.663H522.235V734.664H524.871ZM537.835 722.886H526.915V736.839H522.235V718.909H537.835V722.886ZM537.418 730.467H525.487V726.731H537.418V730.467ZM554.688 740.398H550.03V716.229H554.688V740.398ZM551.392 730.071H544.581V726.16H551.392V730.071ZM545.877 740.135H541.351V716.954H545.877V740.135ZM554.688 755.867H549.854V746.111H527.486V742.178H554.688V755.867ZM588.145 755.867H583.223V716.185H588.145V755.867ZM593.638 736.07H586.585V732.027H593.638V736.07ZM568.369 720.359C568.369 724.227 568.128 727.669 567.644 730.687C567.176 733.689 566.311 736.59 565.051 739.388C563.792 742.171 562.019 744.808 559.734 747.298L555.889 744.529C557.954 742.332 559.558 740.04 560.701 737.652C561.858 735.264 562.664 732.759 563.118 730.137C563.572 727.5 563.799 724.439 563.799 720.953V720.359H568.369ZM565.623 724.358H557.471V720.359H565.623V724.358ZM579.356 720.359C579.356 724.446 579.143 728.13 578.718 731.412C578.294 734.693 577.473 737.908 576.258 741.058C575.042 744.192 573.306 747.129 571.05 749.869L567.161 747.144C569.212 744.668 570.794 742.076 571.907 739.366C573.02 736.641 573.775 733.807 574.17 730.862C574.58 727.918 574.785 724.585 574.785 720.865V720.359H579.356ZM576.763 724.358H569.688V720.359H576.763V724.358ZM606.198 727.435C606.198 730.423 605.73 733.309 604.792 736.092C603.869 738.86 602.551 741.329 600.837 743.497C599.123 745.65 597.124 747.269 594.838 748.353L592.004 744.507C594.04 743.555 595.835 742.171 597.387 740.354C598.94 738.538 600.134 736.509 600.969 734.268C601.804 732.012 602.221 729.734 602.221 727.435V722.205H606.198V727.435ZM607.187 727.435C607.187 729.646 607.597 731.814 608.418 733.938C609.253 736.062 610.439 737.974 611.977 739.673C613.53 741.358 615.339 742.64 617.404 743.519L614.746 747.364C612.402 746.324 610.366 744.793 608.637 742.771C606.909 740.75 605.59 738.421 604.682 735.784C603.774 733.133 603.32 730.35 603.32 727.435V722.205H607.187V727.435ZM615.888 724.117H593.498V720.118H615.888V724.117ZM625.249 755.867H620.305V716.185H625.249V755.867Z" fill="black"/>
<path d="M131.07 882.447H113.733V878.47H131.07V882.447ZM123.95 896.971H119.095V887.259H123.95V896.971ZM133.992 880.887C133.977 882.879 133.911 884.651 133.794 886.204C133.677 887.757 133.406 889.507 132.981 891.456L128.191 891.06C128.601 889.097 128.858 887.369 128.96 885.875C129.063 884.366 129.114 882.703 129.114 880.887V878.47H133.992V880.887ZM143.462 900.618H138.452V876.185H143.462V900.618ZM148.626 890.423H141.353V886.358H148.626V890.423ZM111.36 894.664C116.223 894.649 120.677 894.568 124.72 894.422C128.762 894.261 132.571 893.96 136.145 893.521L136.409 896.971C132.688 897.601 128.755 898.033 124.61 898.267C120.464 898.501 116.194 898.619 111.8 898.619L111.36 894.664ZM130.147 901.08C132.945 901.08 135.362 901.373 137.398 901.958C139.434 902.53 141.001 903.365 142.1 904.463C143.199 905.562 143.748 906.858 143.748 908.353C143.748 909.92 143.199 911.253 142.1 912.352C141.016 913.465 139.456 914.314 137.42 914.9C135.384 915.486 132.959 915.779 130.147 915.779C127.349 915.779 124.925 915.486 122.874 914.9C120.838 914.314 119.27 913.465 118.172 912.352C117.073 911.253 116.524 909.92 116.524 908.353C116.524 906.858 117.073 905.562 118.172 904.463C119.27 903.365 120.845 902.53 122.896 901.958C124.961 901.373 127.378 901.08 130.147 901.08ZM130.147 904.859C128.345 904.844 126.792 904.976 125.489 905.254C124.185 905.518 123.189 905.914 122.5 906.441C121.826 906.968 121.49 907.605 121.49 908.353C121.49 909.144 121.826 909.81 122.5 910.352C123.174 910.879 124.156 911.282 125.445 911.561C126.734 911.839 128.301 911.978 130.147 911.978C132.007 911.978 133.575 911.839 134.849 911.561C136.123 911.282 137.09 910.879 137.749 910.352C138.408 909.81 138.738 909.144 138.738 908.353C138.738 907.605 138.401 906.968 137.727 906.441C137.068 905.914 136.094 905.518 134.805 905.254C133.516 904.976 131.963 904.844 130.147 904.859ZM176.831 883.743H151.277V879.81H176.831V883.743ZM183.708 910.77H147.541V906.792H183.708V910.77ZM165.713 908.836H160.901V892.95H165.713V908.836ZM179.929 883.655C179.929 885.984 179.9 887.962 179.841 889.588C179.782 891.199 179.643 893.104 179.424 895.301C179.204 897.483 178.86 899.856 178.391 902.42L173.447 901.893C173.93 899.49 174.289 897.227 174.524 895.103C174.758 892.964 174.897 891.067 174.941 889.412C174.985 887.757 175.007 885.838 175.007 883.655V879.81H179.929V883.655ZM216.308 915.977H211.364V876.185H216.308V915.977ZM190.226 889.368H199.872V879.437H204.684V906.595H185.37V879.437H190.226V889.368ZM199.872 902.596V893.191H190.226V902.596H199.872ZM247.054 900.728H242.242V895.015H247.054V900.728ZM262.764 896.136H226.597V892.269H262.764V896.136ZM258.282 908.946H235.694V912.857H230.86V905.496H253.448V902.815H230.838V899.168H258.282V908.946ZM259.358 915.56H230.86V911.824H259.358V915.56ZM246.043 879.898C246.043 881.861 245.369 883.619 244.021 885.171C242.688 886.724 240.806 887.999 238.374 888.995C235.943 889.976 233.108 890.599 229.871 890.862L228.311 887.193C231.05 887.002 233.438 886.548 235.474 885.831C237.51 885.113 239.07 884.241 240.154 883.216C241.238 882.176 241.78 881.07 241.78 879.898V878.887H246.043V879.898ZM247.537 879.898C247.537 881.07 248.079 882.176 249.163 883.216C250.247 884.241 251.822 885.113 253.887 885.831C255.953 886.548 258.34 887.002 261.05 887.193L259.512 890.862C256.275 890.599 253.426 889.976 250.965 888.995C248.518 887.999 246.621 886.724 245.274 885.171C243.941 883.604 243.274 881.846 243.274 879.898V878.887H247.537V879.898ZM259.512 881.194H229.871V877.415H259.512V881.194ZM291.672 888.577H280.224V884.6H291.672V888.577ZM291.672 900.926H280.224V896.993H291.672V900.926ZM273.171 879.085C275.134 879.085 276.877 879.664 278.401 880.821C279.939 881.963 281.14 883.597 282.004 885.721C282.883 887.83 283.323 890.291 283.323 893.104C283.323 895.931 282.883 898.406 282.004 900.53C281.14 902.64 279.939 904.273 278.401 905.43C276.877 906.587 275.134 907.166 273.171 907.166C271.194 907.166 269.436 906.595 267.898 905.452C266.36 904.295 265.151 902.654 264.272 900.53C263.408 898.406 262.976 895.931 262.976 893.104C262.976 890.291 263.408 887.83 264.272 885.721C265.151 883.597 266.36 881.963 267.898 880.821C269.436 879.664 271.194 879.085 273.171 879.085ZM273.171 883.479C272.087 883.465 271.12 883.846 270.271 884.622C269.436 885.398 268.791 886.512 268.337 887.962C267.883 889.397 267.656 891.111 267.656 893.104C267.656 895.096 267.883 896.824 268.337 898.289C268.791 899.739 269.436 900.845 270.271 901.607C271.12 902.354 272.087 902.728 273.171 902.728C274.255 902.728 275.215 902.354 276.05 901.607C276.899 900.845 277.551 899.739 278.005 898.289C278.459 896.824 278.686 895.096 278.686 893.104C278.686 891.097 278.459 889.375 278.005 887.94C277.551 886.49 276.907 885.384 276.072 884.622C275.251 883.846 274.284 883.465 273.171 883.479ZM295.605 915.977H290.771V876.185H295.605V915.977ZM328.952 892.972H318.185V889.039H328.952V892.972ZM311.747 885.721C311.747 888.943 311.322 892.012 310.473 894.927C309.623 897.828 308.371 900.398 306.716 902.64C305.06 904.881 303.075 906.595 300.761 907.781L297.663 903.804C299.772 902.823 301.589 901.387 303.112 899.498C304.635 897.608 305.793 895.477 306.584 893.104C307.375 890.716 307.77 888.255 307.77 885.721V879.371H311.747V885.721ZM312.736 885.721C312.736 888.24 313.117 890.65 313.879 892.95C314.655 895.25 315.783 897.293 317.262 899.08C318.757 900.867 320.529 902.222 322.58 903.145L319.635 907.056C317.321 905.914 315.351 904.273 313.725 902.134C312.113 899.981 310.89 897.505 310.055 894.708C309.22 891.91 308.803 888.914 308.803 885.721V879.371H312.736V885.721ZM331.347 915.977H326.513V876.185H331.347V915.977ZM370.684 883.743H345.13V879.81H370.684V883.743ZM377.562 910.77H341.395V906.792H377.562V910.77ZM359.566 908.836H354.754V892.95H359.566V908.836ZM373.782 883.655C373.782 885.984 373.753 887.962 373.694 889.588C373.636 891.199 373.497 893.104 373.277 895.301C373.057 897.483 372.713 899.856 372.244 902.42L367.3 901.893C367.784 899.49 368.143 897.227 368.377 895.103C368.611 892.964 368.75 891.067 368.794 889.412C368.838 887.757 368.86 885.838 368.86 883.655V879.81H373.782V883.655ZM411.084 899.52H406.426V876.229H411.084V899.52ZM407.832 889.632H400.932V885.655H407.832V889.632ZM402.273 899.322H397.659V876.954H402.273V899.322ZM411.084 915.867H406.25V905.101H383.684V901.146H411.084V915.867ZM394.451 878.997C394.465 882.264 393.916 885.215 392.803 887.852C391.689 890.474 390.005 892.789 387.749 894.795C385.493 896.788 382.651 898.479 379.224 899.871L376.894 896.224C379.78 895.11 382.161 893.799 384.036 892.291C385.925 890.767 387.324 889.046 388.232 887.127C389.141 885.208 389.595 883.099 389.595 880.799V878.997H394.451ZM391.221 882.952H378.718V878.997H391.221V882.952ZM454.706 915.867H450.004V876.185H454.706V915.867ZM446.971 914.065H442.423V876.932H446.971V914.065ZM444.576 893.213H437.655V889.236H444.576V893.213ZM444.269 902.31H437.369V898.443H444.269V902.31ZM439.567 886.402H420.362V882.491H439.567V886.402ZM429.855 888.511C431.495 888.511 432.96 888.907 434.249 889.698C435.538 890.489 436.542 891.602 437.259 893.038C437.992 894.473 438.358 896.106 438.358 897.938C438.358 899.754 437.992 901.38 437.259 902.815C436.542 904.236 435.538 905.35 434.249 906.155C432.96 906.946 431.495 907.342 429.855 907.342C428.273 907.342 426.837 906.946 425.548 906.155C424.259 905.35 423.248 904.236 422.516 902.815C421.798 901.38 421.439 899.754 421.439 897.938C421.439 896.106 421.798 894.48 422.516 893.06C423.234 891.624 424.237 890.511 425.526 889.72C426.83 888.914 428.273 888.511 429.855 888.511ZM429.855 892.664C429.034 892.649 428.309 892.854 427.679 893.279C427.049 893.704 426.559 894.319 426.207 895.125C425.87 895.916 425.702 896.854 425.702 897.938C425.702 898.992 425.878 899.915 426.229 900.706C426.581 901.497 427.064 902.112 427.679 902.552C428.309 902.977 429.034 903.189 429.855 903.189C430.69 903.189 431.429 902.977 432.074 902.552C432.733 902.112 433.238 901.497 433.59 900.706C433.942 899.915 434.117 898.992 434.117 897.938C434.117 896.854 433.942 895.916 433.59 895.125C433.238 894.319 432.733 893.704 432.074 893.279C431.429 892.854 430.69 892.649 429.855 892.664ZM432.425 884.908H427.548V877.195H432.425V884.908ZM460.323 894.664C463.589 894.649 466.248 894.576 468.299 894.444C470.35 894.312 472.408 894.063 474.473 893.697L474.957 897.652C472.745 898.047 470.577 898.318 468.453 898.465C466.343 898.597 463.633 898.663 460.323 898.663H457.686V894.664H460.323ZM473.287 882.886H462.366V896.839H457.686V878.909H473.287V882.886ZM472.869 890.467H460.938V886.731H472.869V890.467ZM490.14 900.398H485.482V876.229H490.14V900.398ZM486.844 890.071H480.032V886.16H486.844V890.071ZM481.329 900.135H476.802V876.954H481.329V900.135ZM490.14 915.867H485.306V906.111H462.938V902.178H490.14V915.867ZM504.582 902.266C508.405 902.266 511.599 902.186 514.162 902.024C516.725 901.849 519.289 901.526 521.852 901.058L522.38 905.013C519.728 905.525 517.084 905.877 514.448 906.067C511.826 906.243 508.537 906.324 504.582 906.309H501.418V902.266H504.582ZM519.545 883.787H506.318V903.782H501.418V879.788H519.545V883.787ZM532.817 915.977H527.939V876.185H532.817V915.977ZM530.004 894.158H517.458V890.159H530.004V894.158ZM540.324 902.266C544.147 902.266 547.34 902.186 549.904 902.024C552.467 901.849 555.031 901.526 557.594 901.058L558.121 905.013C555.47 905.525 552.826 905.877 550.189 906.067C547.567 906.243 544.279 906.324 540.324 906.309H537.159V902.266H540.324ZM555.287 883.787H542.059V903.782H537.159V879.788H555.287V883.787ZM568.558 915.977H563.68V876.185H568.558V915.977ZM565.746 894.158H553.2V890.159H565.746V894.158ZM576.065 902.266C579.888 902.266 583.082 902.186 585.645 902.024C588.209 901.849 590.772 901.526 593.336 901.058L593.863 905.013C591.212 905.525 588.568 905.877 585.931 906.067C583.309 906.243 580.02 906.324 576.065 906.309H572.901V902.266H576.065ZM591.029 883.787H577.801V903.782H572.901V879.788H591.029V883.787ZM604.3 915.977H599.422V876.185H604.3V915.977ZM601.487 894.158H588.941V890.159H601.487V894.158Z" fill="black"/>
</svg>
